<?xml version="1.0" encoding="UTF-8" standalone="no"?>
<!DOCTYPE svg PUBLIC "-//W3C//DTD SVG 1.1//EN"
 "http://www.w3.org/Graphics/SVG/1.1/DTD/svg11.dtd">
<!-- Generated by graphviz version 2.26.3 (20100126.1600)
 -->
<!-- Title: G Pages: 1 -->
<svg width="902pt" height="410pt"
 viewBox="0.00 0.00 902.00 410.00" xmlns="http://www.w3.org/2000/svg" xmlns:xlink="http://www.w3.org/1999/xlink">
<g id="graph1" class="graph" transform="scale(1 1) rotate(0) translate(4 406)">
<title>G</title>
<polygon fill="white" stroke="white" points="-4,5 -4,-406 899,-406 899,5 -4,5"/>
<g id="graph2" class="cluster"><title>cluster_Global</title>
<polyline fill="none" stroke="gray" points="430,-44 874,-44 "/>
<path fill="none" stroke="gray" d="M874,-44C880,-44 886,-50 886,-56"/>
<polyline fill="none" stroke="gray" points="886,-56 886,-382 "/>
<path fill="none" stroke="gray" d="M886,-382C886,-388 880,-394 874,-394"/>
<polyline fill="none" stroke="gray" points="874,-394 430,-394 "/>
<path fill="none" stroke="gray" d="M430,-394C424,-394 418,-388 418,-382"/>
<polyline fill="none" stroke="gray" points="418,-382 418,-56 "/>
<path fill="none" stroke="gray" d="M418,-56C418,-50 424,-44 430,-44"/>
<text text-anchor="middle" x="652" y="-380.1" font-family="Times Roman,serif" font-size="11.00" fill="gray">Global</text>
</g>
<g id="graph3" class="cluster"><title>cluster_\DoBi</title>
<polyline fill="none" stroke="gray" points="438,-52 866,-52 "/>
<path fill="none" stroke="gray" d="M866,-52C872,-52 878,-58 878,-64"/>
<polyline fill="none" stroke="gray" points="878,-64 878,-352 "/>
<path fill="none" stroke="gray" d="M878,-352C878,-358 872,-364 866,-364"/>
<polyline fill="none" stroke="gray" points="866,-364 438,-364 "/>
<path fill="none" stroke="gray" d="M438,-364C432,-364 426,-358 426,-352"/>
<polyline fill="none" stroke="gray" points="426,-352 426,-64 "/>
<path fill="none" stroke="gray" d="M426,-64C426,-58 432,-52 438,-52"/>
<text text-anchor="middle" x="652" y="-350.1" font-family="Times Roman,serif" font-size="11.00" fill="gray">DoBi</text>
</g>
<g id="graph4" class="cluster"><title>cluster_\DoBi\Core</title>
<polyline fill="none" stroke="gray" points="446,-60 858,-60 "/>
<path fill="none" stroke="gray" d="M858,-60C864,-60 870,-66 870,-72"/>
<polyline fill="none" stroke="gray" points="870,-72 870,-322 "/>
<path fill="none" stroke="gray" d="M870,-322C870,-328 864,-334 858,-334"/>
<polyline fill="none" stroke="gray" points="858,-334 446,-334 "/>
<path fill="none" stroke="gray" d="M446,-334C440,-334 434,-328 434,-322"/>
<polyline fill="none" stroke="gray" points="434,-322 434,-72 "/>
<path fill="none" stroke="gray" d="M434,-72C434,-66 440,-60 446,-60"/>
<text text-anchor="middle" x="652" y="-320.1" font-family="Times Roman,serif" font-size="11.00" fill="gray">Core</text>
</g>
<g id="graph5" class="cluster"><title>cluster_\DoBi\Core\Logger</title>
<polyline fill="none" stroke="gray" points="454,-68 850,-68 "/>
<path fill="none" stroke="gray" d="M850,-68C856,-68 862,-74 862,-80"/>
<polyline fill="none" stroke="gray" points="862,-80 862,-292 "/>
<path fill="none" stroke="gray" d="M862,-292C862,-298 856,-304 850,-304"/>
<polyline fill="none" stroke="gray" points="850,-304 454,-304 "/>
<path fill="none" stroke="gray" d="M454,-304C448,-304 442,-298 442,-292"/>
<polyline fill="none" stroke="gray" points="442,-292 442,-80 "/>
<path fill="none" stroke="gray" d="M442,-80C442,-74 448,-68 454,-68"/>
<text text-anchor="middle" x="652" y="-290.1" font-family="Times Roman,serif" font-size="11.00" fill="gray">Logger</text>
</g>
<!-- \\DoBi\\Core\\Logger\\WebConsoleLogger -->
<g id="node5" class="node"><title>\\DoBi\\Core\\Logger\\WebConsoleLogger</title>
<polygon fill="none" stroke="black" points="853,-274 729,-274 729,-238 853,-238 853,-274"/>
<text text-anchor="middle" x="791" y="-253.1" font-family="Courier,monospace" font-size="11.00">WebConsoleLogger</text>
</g>
<!-- \\DoBi\\Core\\Logger\\CoreLogger -->
<g id="node8" class="node"><title>\\DoBi\\Core\\Logger\\CoreLogger</title>
<polygon fill="none" stroke="black" points="535,-193 451,-193 451,-157 535,-157 535,-193"/>
<text text-anchor="start" x="459" y="-180.433" font-family="Courier,monospace" font-size="11.00">«abstract»</text>
<text text-anchor="start" x="459" y="-167.233" font-family="Courier,monospace" font-size="11.00">CoreLogger</text>
</g>
<!-- \\DoBi\\Core\\Logger\\WebConsoleLogger&#45;&gt;\\DoBi\\Core\\Logger\\CoreLogger -->
<g id="edge6" class="edge"><title>\\DoBi\\Core\\Logger\\WebConsoleLogger&#45;&gt;\\DoBi\\Core\\Logger\\CoreLogger</title>
<path fill="none" stroke="black" d="M728.166,-238.921C673.896,-224.17 596.39,-203.103 545.404,-189.244"/>
<polygon fill="none" stroke="black" points="546.143,-185.818 535.575,-186.573 544.307,-192.573 546.143,-185.818"/>
</g>
<!-- \\DoBi\\Core\\Logger\\Logger -->
<g id="node6" class="node"><title>\\DoBi\\Core\\Logger\\Logger</title>
<polygon fill="none" stroke="black" points="819,-112 763,-112 763,-76 819,-76 819,-112"/>
<text text-anchor="middle" x="791" y="-91.1" font-family="Courier,monospace" font-size="11.00">Logger</text>
</g>
<!-- \\Psr\\Log\\AbstractLogger -->
<g id="node12" class="node"><title>\\Psr\\Log\\AbstractLogger</title>
<ellipse fill="none" stroke="black" cx="129" cy="-143" rx="128.193" ry="18.3848"/>
<text text-anchor="middle" x="129" y="-139.4" font-family="Times Roman,serif" font-size="14.00" fill="gray">\Psr\Log\AbstractLogger</text>
</g>
<!-- \\DoBi\\Core\\Logger\\Logger&#45;&gt;\\Psr\\Log\\AbstractLogger -->
<g id="edge8" class="edge"><title>\\DoBi\\Core\\Logger\\Logger&#45;&gt;\\Psr\\Log\\AbstractLogger</title>
<path fill="none" stroke="black" d="M762.129,-96.137C675.073,-102.581 411.421,-122.096 253.128,-133.812"/>
<polygon fill="none" stroke="black" points="252.571,-130.344 242.857,-134.573 253.088,-137.325 252.571,-130.344"/>
</g>
<!-- \\Psr\\Log\\LoggerAwareInterface -->
<g id="node14" class="node"><title>\\Psr\\Log\\LoggerAwareInterface</title>
<ellipse fill="none" stroke="black" cx="493" cy="-18" rx="162.134" ry="18.3848"/>
<text text-anchor="middle" x="493" y="-14.4" font-family="Times Roman,serif" font-size="14.00" fill="gray">\Psr\Log\LoggerAwareInterface</text>
</g>
<!-- \\DoBi\\Core\\Logger\\Logger&#45;&gt;\\Psr\\Log\\LoggerAwareInterface -->
<g id="edge10" class="edge"><title>\\DoBi\\Core\\Logger\\Logger&#45;&gt;\\Psr\\Log\\LoggerAwareInterface</title>
<path fill="none" stroke="black" stroke-dasharray="1,5" d="M762.427,-86.7128C718.039,-75.3924 631.062,-53.2104 567.907,-37.1039"/>
<polygon fill="none" stroke="black" points="568.541,-33.6535 557.986,-34.5736 566.811,-40.4364 568.541,-33.6535"/>
</g>
<!-- \\DoBi\\Core\\Logger\\FileLogger -->
<g id="node7" class="node"><title>\\DoBi\\Core\\Logger\\FileLogger</title>
<polygon fill="none" stroke="black" points="833,-220 749,-220 749,-184 833,-184 833,-220"/>
<text text-anchor="middle" x="791" y="-199.1" font-family="Courier,monospace" font-size="11.00">FileLogger</text>
</g>
<!-- \\DoBi\\Core\\Logger\\FileLogger&#45;&gt;\\DoBi\\Core\\Logger\\CoreLogger -->
<g id="edge12" class="edge"><title>\\DoBi\\Core\\Logger\\FileLogger&#45;&gt;\\DoBi\\Core\\Logger\\CoreLogger</title>
<path fill="none" stroke="black" d="M748.936,-198.189C695.661,-193.362 603.836,-185.042 545.874,-179.791"/>
<polygon fill="none" stroke="black" points="546.09,-176.296 535.815,-178.879 545.458,-183.267 546.09,-176.296"/>
</g>
<!-- \\DoBi\\Core\\Logger\\CoreLogger&#45;&gt;\\Psr\\Log\\AbstractLogger -->
<g id="edge14" class="edge"><title>\\DoBi\\Core\\Logger\\CoreLogger&#45;&gt;\\Psr\\Log\\AbstractLogger</title>
<path fill="none" stroke="black" d="M450.174,-171.235C400.826,-166.897 317.618,-159.582 248.26,-153.484"/>
<polygon fill="none" stroke="black" points="248.402,-149.983 238.133,-152.594 247.789,-156.957 248.402,-149.983"/>
</g>
<!-- \\DoBi\\Core\\Logger\\ConsoleLogger -->
<g id="node9" class="node"><title>\\DoBi\\Core\\Logger\\ConsoleLogger</title>
<polygon fill="none" stroke="black" points="843,-166 739,-166 739,-130 843,-130 843,-166"/>
<text text-anchor="middle" x="791" y="-145.1" font-family="Courier,monospace" font-size="11.00">ConsoleLogger</text>
</g>
<!-- \\DoBi\\Core\\Logger\\ConsoleLogger&#45;&gt;\\DoBi\\Core\\Logger\\CoreLogger -->
<g id="edge16" class="edge"><title>\\DoBi\\Core\\Logger\\ConsoleLogger&#45;&gt;\\DoBi\\Core\\Logger\\CoreLogger</title>
<path fill="none" stroke="black" d="M738.751,-152.734C684.493,-157.65 600.077,-165.298 545.665,-170.228"/>
<polygon fill="none" stroke="black" points="545.177,-166.758 535.534,-171.146 545.809,-173.73 545.177,-166.758"/>
</g>
</g>
</svg>
