<?xml version="1.0" encoding="UTF-8" standalone="no"?>
<!DOCTYPE svg PUBLIC "-//W3C//DTD SVG 1.1//EN"
 "http://www.w3.org/Graphics/SVG/1.1/DTD/svg11.dtd">
<!-- Generated by graphviz version 2.26.3 (20100126.1600)
 -->
<!-- Title: G Pages: 1 -->
<svg width="662pt" height="266pt"
 viewBox="0.00 0.00 662.00 266.00" xmlns="http://www.w3.org/2000/svg" xmlns:xlink="http://www.w3.org/1999/xlink">
<g id="graph1" class="graph" transform="scale(1 1) rotate(0) translate(4 262)">
<title>G</title>
<polygon fill="white" stroke="white" points="-4,5 -4,-262 659,-262 659,5 -4,5"/>
<g id="graph2" class="cluster"><title>cluster_Global</title>
<polyline fill="none" stroke="gray" points="310,-8 634,-8 "/>
<path fill="none" stroke="gray" d="M634,-8C640,-8 646,-14 646,-20"/>
<polyline fill="none" stroke="gray" points="646,-20 646,-238 "/>
<path fill="none" stroke="gray" d="M646,-238C646,-244 640,-250 634,-250"/>
<polyline fill="none" stroke="gray" points="634,-250 310,-250 "/>
<path fill="none" stroke="gray" d="M310,-250C304,-250 298,-244 298,-238"/>
<polyline fill="none" stroke="gray" points="298,-238 298,-20 "/>
<path fill="none" stroke="gray" d="M298,-20C298,-14 304,-8 310,-8"/>
<text text-anchor="middle" x="472" y="-236.1" font-family="Times Roman,serif" font-size="11.00" fill="gray">Global</text>
</g>
<g id="graph3" class="cluster"><title>cluster_\DoBi</title>
<polyline fill="none" stroke="gray" points="318,-16 626,-16 "/>
<path fill="none" stroke="gray" d="M626,-16C632,-16 638,-22 638,-28"/>
<polyline fill="none" stroke="gray" points="638,-28 638,-208 "/>
<path fill="none" stroke="gray" d="M638,-208C638,-214 632,-220 626,-220"/>
<polyline fill="none" stroke="gray" points="626,-220 318,-220 "/>
<path fill="none" stroke="gray" d="M318,-220C312,-220 306,-214 306,-208"/>
<polyline fill="none" stroke="gray" points="306,-208 306,-28 "/>
<path fill="none" stroke="gray" d="M306,-28C306,-22 312,-16 318,-16"/>
<text text-anchor="middle" x="472" y="-206.1" font-family="Times Roman,serif" font-size="11.00" fill="gray">DoBi</text>
</g>
<g id="graph4" class="cluster"><title>cluster_\DoBi\Core</title>
<polyline fill="none" stroke="gray" points="326,-24 618,-24 "/>
<path fill="none" stroke="gray" d="M618,-24C624,-24 630,-30 630,-36"/>
<polyline fill="none" stroke="gray" points="630,-36 630,-178 "/>
<path fill="none" stroke="gray" d="M630,-178C630,-184 624,-190 618,-190"/>
<polyline fill="none" stroke="gray" points="618,-190 326,-190 "/>
<path fill="none" stroke="gray" d="M326,-190C320,-190 314,-184 314,-178"/>
<polyline fill="none" stroke="gray" points="314,-178 314,-36 "/>
<path fill="none" stroke="gray" d="M314,-36C314,-30 320,-24 326,-24"/>
<text text-anchor="middle" x="472" y="-176.1" font-family="Times Roman,serif" font-size="11.00" fill="gray">Core</text>
</g>
<g id="graph5" class="cluster"><title>cluster_\DoBi\Core\Logger</title>
<polyline fill="none" stroke="gray" points="334,-32 610,-32 "/>
<path fill="none" stroke="gray" d="M610,-32C616,-32 622,-38 622,-44"/>
<polyline fill="none" stroke="gray" points="622,-44 622,-148 "/>
<path fill="none" stroke="gray" d="M622,-148C622,-154 616,-160 610,-160"/>
<polyline fill="none" stroke="gray" points="610,-160 334,-160 "/>
<path fill="none" stroke="gray" d="M334,-160C328,-160 322,-154 322,-148"/>
<polyline fill="none" stroke="gray" points="322,-148 322,-44 "/>
<path fill="none" stroke="gray" d="M322,-44C322,-38 328,-32 334,-32"/>
<text text-anchor="middle" x="472" y="-146.1" font-family="Times Roman,serif" font-size="11.00" fill="gray">Logger</text>
</g>
<!-- \\DoBi\\Core\\Logger\\WebConsoleLogger -->
<g id="node5" class="node"><title>\\DoBi\\Core\\Logger\\WebConsoleLogger</title>
<polygon fill="none" stroke="black" points="613,-130 489,-130 489,-94 613,-94 613,-130"/>
<text text-anchor="middle" x="551" y="-109.1" font-family="Courier,monospace" font-size="11.00">WebConsoleLogger</text>
</g>
<!-- \\DoBi\\Core\\Logger\\CoreLogger -->
<g id="node6" class="node"><title>\\DoBi\\Core\\Logger\\CoreLogger</title>
<polygon fill="none" stroke="black" points="415,-103 331,-103 331,-67 415,-67 415,-103"/>
<text text-anchor="start" x="339" y="-90.4333" font-family="Courier,monospace" font-size="11.00">«abstract»</text>
<text text-anchor="start" x="339" y="-77.2333" font-family="Courier,monospace" font-size="11.00">CoreLogger</text>
</g>
<!-- \\DoBi\\Core\\Logger\\WebConsoleLogger&#45;&gt;\\DoBi\\Core\\Logger\\CoreLogger -->
<g id="edge6" class="edge"><title>\\DoBi\\Core\\Logger\\WebConsoleLogger&#45;&gt;\\DoBi\\Core\\Logger\\CoreLogger</title>
<path fill="none" stroke="black" d="M488.494,-102.519C467.936,-99.4004 445.302,-95.9672 425.56,-92.9726"/>
<polygon fill="none" stroke="black" points="425.938,-89.49 415.526,-91.4506 424.888,-96.4108 425.938,-89.49"/>
</g>
<!-- \\Psr\\Log\\AbstractLogger -->
<g id="node10" class="node"><title>\\Psr\\Log\\AbstractLogger</title>
<ellipse fill="none" stroke="black" cx="129" cy="-85" rx="128.193" ry="18.3848"/>
<text text-anchor="middle" x="129" y="-81.4" font-family="Times Roman,serif" font-size="14.00" fill="gray">\Psr\Log\AbstractLogger</text>
</g>
<!-- \\DoBi\\Core\\Logger\\CoreLogger&#45;&gt;\\Psr\\Log\\AbstractLogger -->
<g id="edge8" class="edge"><title>\\DoBi\\Core\\Logger\\CoreLogger&#45;&gt;\\Psr\\Log\\AbstractLogger</title>
<path fill="none" stroke="black" d="M330.498,-85C312.539,-85 290.508,-85 267.684,-85"/>
<polygon fill="none" stroke="black" points="267.509,-81.5001 257.509,-85 267.509,-88.5001 267.509,-81.5001"/>
</g>
<!-- \\DoBi\\Core\\Logger\\ConsoleLogger -->
<g id="node7" class="node"><title>\\DoBi\\Core\\Logger\\ConsoleLogger</title>
<polygon fill="none" stroke="black" points="603,-76 499,-76 499,-40 603,-40 603,-76"/>
<text text-anchor="middle" x="551" y="-55.1" font-family="Courier,monospace" font-size="11.00">ConsoleLogger</text>
</g>
<!-- \\DoBi\\Core\\Logger\\ConsoleLogger&#45;&gt;\\DoBi\\Core\\Logger\\CoreLogger -->
<g id="edge10" class="edge"><title>\\DoBi\\Core\\Logger\\ConsoleLogger&#45;&gt;\\DoBi\\Core\\Logger\\CoreLogger</title>
<path fill="none" stroke="black" d="M498.557,-65.9549C475.51,-69.4508 448.504,-73.5472 425.455,-77.0434"/>
<polygon fill="none" stroke="black" points="424.87,-73.5919 415.508,-78.5521 425.92,-80.5128 424.87,-73.5919"/>
</g>
</g>
</svg>
