<?xml version="1.0" encoding="UTF-8" standalone="no"?>
<!DOCTYPE svg PUBLIC "-//W3C//DTD SVG 1.1//EN"
 "http://www.w3.org/Graphics/SVG/1.1/DTD/svg11.dtd">
<!-- Generated by graphviz version 2.26.3 (20100126.1600)
 -->
<!-- Title: G Pages: 1 -->
<svg width="662pt" height="320pt"
 viewBox="0.00 0.00 662.00 320.00" xmlns="http://www.w3.org/2000/svg" xmlns:xlink="http://www.w3.org/1999/xlink">
<g id="graph1" class="graph" transform="scale(1 1) rotate(0) translate(4 316)">
<title>G</title>
<polygon fill="white" stroke="white" points="-4,5 -4,-316 659,-316 659,5 -4,5"/>
<g id="graph2" class="cluster"><title>cluster_Global</title>
<polyline fill="none" stroke="gray" points="310,-8 634,-8 "/>
<path fill="none" stroke="gray" d="M634,-8C640,-8 646,-14 646,-20"/>
<polyline fill="none" stroke="gray" points="646,-20 646,-292 "/>
<path fill="none" stroke="gray" d="M646,-292C646,-298 640,-304 634,-304"/>
<polyline fill="none" stroke="gray" points="634,-304 310,-304 "/>
<path fill="none" stroke="gray" d="M310,-304C304,-304 298,-298 298,-292"/>
<polyline fill="none" stroke="gray" points="298,-292 298,-20 "/>
<path fill="none" stroke="gray" d="M298,-20C298,-14 304,-8 310,-8"/>
<text text-anchor="middle" x="472" y="-290.1" font-family="Times Roman,serif" font-size="11.00" fill="gray">Global</text>
</g>
<g id="graph3" class="cluster"><title>cluster_\DoBi</title>
<polyline fill="none" stroke="gray" points="318,-16 626,-16 "/>
<path fill="none" stroke="gray" d="M626,-16C632,-16 638,-22 638,-28"/>
<polyline fill="none" stroke="gray" points="638,-28 638,-262 "/>
<path fill="none" stroke="gray" d="M638,-262C638,-268 632,-274 626,-274"/>
<polyline fill="none" stroke="gray" points="626,-274 318,-274 "/>
<path fill="none" stroke="gray" d="M318,-274C312,-274 306,-268 306,-262"/>
<polyline fill="none" stroke="gray" points="306,-262 306,-28 "/>
<path fill="none" stroke="gray" d="M306,-28C306,-22 312,-16 318,-16"/>
<text text-anchor="middle" x="472" y="-260.1" font-family="Times Roman,serif" font-size="11.00" fill="gray">DoBi</text>
</g>
<g id="graph4" class="cluster"><title>cluster_\DoBi\Core</title>
<polyline fill="none" stroke="gray" points="326,-24 618,-24 "/>
<path fill="none" stroke="gray" d="M618,-24C624,-24 630,-30 630,-36"/>
<polyline fill="none" stroke="gray" points="630,-36 630,-232 "/>
<path fill="none" stroke="gray" d="M630,-232C630,-238 624,-244 618,-244"/>
<polyline fill="none" stroke="gray" points="618,-244 326,-244 "/>
<path fill="none" stroke="gray" d="M326,-244C320,-244 314,-238 314,-232"/>
<polyline fill="none" stroke="gray" points="314,-232 314,-36 "/>
<path fill="none" stroke="gray" d="M314,-36C314,-30 320,-24 326,-24"/>
<text text-anchor="middle" x="472" y="-230.1" font-family="Times Roman,serif" font-size="11.00" fill="gray">Core</text>
</g>
<g id="graph5" class="cluster"><title>cluster_\DoBi\Core\Logger</title>
<polyline fill="none" stroke="gray" points="334,-32 610,-32 "/>
<path fill="none" stroke="gray" d="M610,-32C616,-32 622,-38 622,-44"/>
<polyline fill="none" stroke="gray" points="622,-44 622,-202 "/>
<path fill="none" stroke="gray" d="M622,-202C622,-208 616,-214 610,-214"/>
<polyline fill="none" stroke="gray" points="610,-214 334,-214 "/>
<path fill="none" stroke="gray" d="M334,-214C328,-214 322,-208 322,-202"/>
<polyline fill="none" stroke="gray" points="322,-202 322,-44 "/>
<path fill="none" stroke="gray" d="M322,-44C322,-38 328,-32 334,-32"/>
<text text-anchor="middle" x="472" y="-200.1" font-family="Times Roman,serif" font-size="11.00" fill="gray">Logger</text>
</g>
<!-- \\DoBi\\Core\\Logger\\WebConsoleLogger -->
<g id="node5" class="node"><title>\\DoBi\\Core\\Logger\\WebConsoleLogger</title>
<polygon fill="none" stroke="black" points="613,-184 489,-184 489,-148 613,-148 613,-184"/>
<text text-anchor="middle" x="551" y="-163.1" font-family="Courier,monospace" font-size="11.00">WebConsoleLogger</text>
</g>
<!-- \\DoBi\\Core\\Logger\\CoreLogger -->
<g id="node7" class="node"><title>\\DoBi\\Core\\Logger\\CoreLogger</title>
<polygon fill="none" stroke="black" points="415,-130 331,-130 331,-94 415,-94 415,-130"/>
<text text-anchor="start" x="339" y="-117.433" font-family="Courier,monospace" font-size="11.00">«abstract»</text>
<text text-anchor="start" x="339" y="-104.233" font-family="Courier,monospace" font-size="11.00">CoreLogger</text>
</g>
<!-- \\DoBi\\Core\\Logger\\WebConsoleLogger&#45;&gt;\\DoBi\\Core\\Logger\\CoreLogger -->
<g id="edge6" class="edge"><title>\\DoBi\\Core\\Logger\\WebConsoleLogger&#45;&gt;\\DoBi\\Core\\Logger\\CoreLogger</title>
<path fill="none" stroke="black" d="M491.233,-147.869C469.969,-141.417 446.199,-134.206 425.581,-127.952"/>
<polygon fill="none" stroke="black" points="426.323,-124.519 415.737,-124.965 424.29,-131.218 426.323,-124.519"/>
</g>
<!-- \\DoBi\\Core\\Logger\\FileLogger -->
<g id="node6" class="node"><title>\\DoBi\\Core\\Logger\\FileLogger</title>
<polygon fill="none" stroke="black" points="593,-130 509,-130 509,-94 593,-94 593,-130"/>
<text text-anchor="middle" x="551" y="-109.1" font-family="Courier,monospace" font-size="11.00">FileLogger</text>
</g>
<!-- \\DoBi\\Core\\Logger\\FileLogger&#45;&gt;\\DoBi\\Core\\Logger\\CoreLogger -->
<g id="edge8" class="edge"><title>\\DoBi\\Core\\Logger\\FileLogger&#45;&gt;\\DoBi\\Core\\Logger\\CoreLogger</title>
<path fill="none" stroke="black" d="M508.816,-112C484.039,-112 452.495,-112 426.044,-112"/>
<polygon fill="none" stroke="black" points="425.807,-108.5 415.807,-112 425.807,-115.5 425.807,-108.5"/>
</g>
<!-- \\Psr\\Log\\AbstractLogger -->
<g id="node12" class="node"><title>\\Psr\\Log\\AbstractLogger</title>
<ellipse fill="none" stroke="black" cx="129" cy="-112" rx="128.193" ry="18.3848"/>
<text text-anchor="middle" x="129" y="-108.4" font-family="Times Roman,serif" font-size="14.00" fill="gray">\Psr\Log\AbstractLogger</text>
</g>
<!-- \\DoBi\\Core\\Logger\\CoreLogger&#45;&gt;\\Psr\\Log\\AbstractLogger -->
<g id="edge10" class="edge"><title>\\DoBi\\Core\\Logger\\CoreLogger&#45;&gt;\\Psr\\Log\\AbstractLogger</title>
<path fill="none" stroke="black" d="M330.498,-112C312.539,-112 290.508,-112 267.684,-112"/>
<polygon fill="none" stroke="black" points="267.509,-108.5 257.509,-112 267.509,-115.5 267.509,-108.5"/>
</g>
<!-- \\DoBi\\Core\\Logger\\ConsoleLogger -->
<g id="node8" class="node"><title>\\DoBi\\Core\\Logger\\ConsoleLogger</title>
<polygon fill="none" stroke="black" points="603,-76 499,-76 499,-40 603,-40 603,-76"/>
<text text-anchor="middle" x="551" y="-55.1" font-family="Courier,monospace" font-size="11.00">ConsoleLogger</text>
</g>
<!-- \\DoBi\\Core\\Logger\\ConsoleLogger&#45;&gt;\\DoBi\\Core\\Logger\\CoreLogger -->
<g id="edge12" class="edge"><title>\\DoBi\\Core\\Logger\\ConsoleLogger&#45;&gt;\\DoBi\\Core\\Logger\\CoreLogger</title>
<path fill="none" stroke="black" d="M498.557,-73.9097C475.406,-80.9329 448.261,-89.1679 425.145,-96.1807"/>
<polygon fill="none" stroke="black" points="424.061,-92.8519 415.508,-99.1043 426.094,-99.5504 424.061,-92.8519"/>
</g>
</g>
</svg>
